<?xml version="1.0" encoding="utf-8"?>
<svg version="1.1" xmlns:xlink="http://www.w3.org/1999/xlink" width="115px" height="115px" xmlns="http://www.w3.org/2000/svg">
  <g transform="matrix(1 0 0 1 -120 -125 )">
    <path d="M 42.3098529411765 2.44544117647059  C 47.1635294117647 1.09926470588235  52.2269117647059 0.422794117647059  57.5 0.422794117647059  C 62.7730882352941 0.422794117647059  67.8364705882353 1.09588235294118  72.6901470588235 2.44544117647059  C 77.5438235294118 3.795  82.0930882352941 5.70602941176471  86.3345588235294 8.18191176470588  C 90.5760294117647 10.6577941176471  94.4319117647059 13.6308823529412  97.8988235294117 17.1011764705882  C 101.365735294118 20.5714705882353  104.338823529412 24.4239705882353  106.818088235294 28.6654411764706  C 109.297352941176 32.9069117647059  111.208382352941 37.4561764705882  112.554558823529 42.3098529411765  C 113.900735294118 47.1635294117647  114.577205882353 52.2302941176471  114.577205882353 57.5  C 114.577205882353 62.7697058823529  113.904117647059 67.8364705882353  112.554558823529 72.6901470588235  C 111.205 77.5438235294118  109.293970588235 82.0930882352941  106.818088235294 86.3345588235294  C 104.342205882353 90.5760294117647  101.369117647059 94.4319117647059  97.8988235294117 97.8988235294117  C 94.4285294117647 101.365735294118  90.5760294117647 104.338823529412  86.3345588235294 106.818088235294  C 82.0930882352941 109.297352941176  77.5438235294118 111.208382352941  72.6901470588235 112.554558823529  C 67.8364705882353 113.900735294118  62.7730882352941 114.577205882353  57.5 114.577205882353  C 52.2269117647059 114.577205882353  47.1635294117647 113.904117647059  42.3098529411765 112.554558823529  C 37.4561764705882 111.205  32.9069117647059 109.293970588235  28.6654411764706 106.818088235294  C 24.4239705882353 104.342205882353  20.5680882352941 101.369117647059  17.1011764705882 97.8988235294118  C 13.6342647058823 94.4285294117647  10.6611764705882 90.5760294117647  8.18191176470588 86.3345588235294  C 5.70264705882353 82.0930882352941  3.79161764705883 77.5438235294118  2.44544117647059 72.6901470588236  C 1.09926470588235 67.8364705882353  0.422794117647059 62.7730882352941  0.422794117647059 57.5  C 0.422794117647059 52.2269117647059  1.09588235294118 47.1635294117647  2.44544117647059 42.3098529411765  C 3.795 37.4561764705882  5.70602941176471 32.9069117647059  8.18191176470588 28.6654411764706  C 10.6577941176471 24.4239705882353  13.6308823529412 20.5680882352941  17.1011764705882 17.1011764705882  C 20.5714705882353 13.6342647058823  24.4239705882353 10.6611764705882  28.6654411764706 8.18191176470588  C 32.9069117647059 5.70264705882353  37.4561764705882 3.79161764705883  42.3098529411765 2.44544117647059  Z M 44.3595588235294 105.184411764706  C 48.5604411764706 106.375  52.9405882352941 106.966911764706  57.5 106.966911764706  C 62.0188235294118 106.966911764706  66.3888235294118 106.371617647059  70.61 105.184411764706  C 74.8311764705882 103.997205882353  78.775 102.329705882353  82.4414705882353 100.188676470588  C 86.1079411764706 98.0476470588236  89.4463235294117 95.4702941176471  92.46 92.46  C 95.4736764705882 89.4497058823529  98.0476470588235 86.1079411764706  100.188676470588 82.4414705882353  C 102.329705882353 78.775  103.993823529412 74.8413235294117  105.184411764706 70.6404411764706  C 106.375 66.4395588235294  106.966911764706 62.0594117647059  106.966911764706 57.5  C 106.966911764706 52.9811764705882  106.371617647059 48.6111764705882  105.184411764706 44.39  C 103.997205882353 40.1688235294118  102.329705882353 36.225  100.188676470588 32.5585294117647  C 98.0476470588235 28.8920588235294  95.470294117647 25.5536764705882  92.46 22.54  C 89.449705882353 19.5263235294118  86.1079411764706 16.9523529411765  82.4414705882353 14.8113235294118  C 78.775 12.6702941176471  74.8311764705882 11.0061764705882  70.61 9.81558823529411  C 66.3888235294118 8.62499999999999  62.0188235294118 8.03308823529411  57.5 8.03308823529411  C 52.9405882352941 8.03308823529411  48.5604411764706 8.62838235294116  44.3595588235294 9.81558823529411  C 40.1586764705882 11.0027941176471  36.225 12.6702941176471  32.5585294117647 14.8113235294118  C 28.8920588235294 16.9523529411765  25.5536764705882 19.5297058823529  22.54 22.54  C 19.5263235294118 25.5502941176471  16.9523529411765 28.8920588235294  14.8113235294117 32.5585294117647  C 12.670294117647 36.225  11.0061764705882 40.1688235294118  9.8155882352941 44.39  C 8.62499999999998 48.6111764705882  8.03308823529409 52.9811764705882  8.03308823529409 57.5  C 8.03308823529409 62.0188235294118  8.62838235294115 66.3888235294118  9.8155882352941 70.61  C 11.002794117647 74.8311764705882  12.670294117647 78.775  14.8113235294117 82.4414705882353  C 16.9523529411765 86.1079411764706  19.5297058823529 89.4463235294117  22.54 92.46  C 25.550294117647 95.4736764705882  28.8920588235294 98.0476470588235  32.5585294117647 100.188676470588  C 36.225 102.329705882353  40.1586764705882 103.993823529412  44.3595588235294 105.184411764706  Z M 47.9888235294118 69.2705882352941  L 83.3614705882353 33.8945588235294  L 88.7123529411765 39.2454411764706  L 47.9888235294118 80.0332352941176  L 26.2876470588235 58.2711764705882  L 31.6385294117647 52.9202941176471  L 47.9888235294118 69.2705882352941  Z " fill-rule="nonzero" fill="#e31951" stroke="none" transform="matrix(1 0 0 1 120 125 )" />
  </g>
</svg>