<?xml version="1.0" encoding="utf-8"?>
<svg version="1.1" xmlns:xlink="http://www.w3.org/1999/xlink" width="616px" height="106px" xmlns="http://www.w3.org/2000/svg">
  <defs>
    <filter x="344px" y="2077px" width="616px" height="106px" filterUnits="userSpaceOnUse" id="filter44">
      <feOffset dx="0" dy="2" in="SourceAlpha" result="shadowOffsetInner" />
      <feGaussianBlur stdDeviation="4" in="shadowOffsetInner" result="shadowGaussian" />
      <feComposite in2="shadowGaussian" operator="atop" in="SourceAlpha" result="shadowComposite" />
      <feColorMatrix type="matrix" values="0 0 0 0 0  0 0 0 0 0  0 0 0 0 0  0 0 0 0.0980392156862745 0  " in="shadowComposite" />
    </filter>
    <g id="widget45">
      <path d="M 353 2088  A 4 4 0 0 1 357 2084 L 947 2084  A 4 4 0 0 1 951 2088 L 951 2168  A 4 4 0 0 1 947 2172 L 357 2172  A 4 4 0 0 1 353 2168 L 353 2088  Z " fill-rule="nonzero" fill="#ffffff" stroke="none" />
      <path d="M 352.5 2088  A 4.5 4.5 0 0 1 357 2083.5 L 947 2083.5  A 4.5 4.5 0 0 1 951.5 2088 L 951.5 2168  A 4.5 4.5 0 0 1 947 2172.5 L 357 2172.5  A 4.5 4.5 0 0 1 352.5 2168 L 352.5 2088  Z " stroke-width="1" stroke="#000000" fill="none" stroke-opacity="0.0980392156862745" />
    </g>
  </defs>
  <g transform="matrix(1 0 0 1 -344 -2077 )">
    <use xlink:href="#widget45" filter="url(#filter44)" />
    <use xlink:href="#widget45" />
  </g>
</svg>