<?xml version="1.0" encoding="utf-8"?>
<svg version="1.1" xmlns:xlink="http://www.w3.org/1999/xlink" width="206px" height="76px" xmlns="http://www.w3.org/2000/svg">
  <defs>
    <filter x="754px" y="2499px" width="206px" height="76px" filterUnits="userSpaceOnUse" id="filter29">
      <feOffset dx="0" dy="2" in="SourceAlpha" result="shadowOffsetInner" />
      <feGaussianBlur stdDeviation="4" in="shadowOffsetInner" result="shadowGaussian" />
      <feComposite in2="shadowGaussian" operator="atop" in="SourceAlpha" result="shadowComposite" />
      <feColorMatrix type="matrix" values="0 0 0 0 0  0 0 0 0 0  0 0 0 0 0  0 0 0 0.0980392156862745 0  " in="shadowComposite" />
    </filter>
    <g id="widget30">
      <path d="M 763 2510  A 4 4 0 0 1 767 2506 L 947 2506  A 4 4 0 0 1 951 2510 L 951 2560  A 4 4 0 0 1 947 2564 L 767 2564  A 4 4 0 0 1 763 2560 L 763 2510  Z " fill-rule="nonzero" fill="#ffffff" stroke="none" />
      <path d="M 762.5 2510  A 4.5 4.5 0 0 1 767 2505.5 L 947 2505.5  A 4.5 4.5 0 0 1 951.5 2510 L 951.5 2560  A 4.5 4.5 0 0 1 947 2564.5 L 767 2564.5  A 4.5 4.5 0 0 1 762.5 2560 L 762.5 2510  Z " stroke-width="1" stroke="#000000" fill="none" stroke-opacity="0.0980392156862745" />
    </g>
  </defs>
  <g transform="matrix(1 0 0 1 -754 -2499 )">
    <use xlink:href="#widget30" filter="url(#filter29)" />
    <use xlink:href="#widget30" />
  </g>
</svg>