<?xml version="1.0" encoding="utf-8"?>
<svg version="1.1" xmlns:xlink="http://www.w3.org/1999/xlink" width="283px" height="258px" xmlns="http://www.w3.org/2000/svg">
  <defs>
    <filter x="675px" y="730px" width="283px" height="258px" filterUnits="userSpaceOnUse" id="filter42">
      <feOffset dx="0" dy="2" in="SourceAlpha" result="shadowOffsetInner" />
      <feGaussianBlur stdDeviation="4" in="shadowOffsetInner" result="shadowGaussian" />
      <feComposite in2="shadowGaussian" operator="atop" in="SourceAlpha" result="shadowComposite" />
      <feColorMatrix type="matrix" values="0 0 0 0 0  0 0 0 0 0  0 0 0 0 0  0 0 0 0.0980392156862745 0  " in="shadowComposite" />
    </filter>
    <g id="widget43">
      <path d="M 684 741  A 4 4 0 0 1 688 737 L 945 737  A 4 4 0 0 1 949 741 L 949 973  A 4 4 0 0 1 945 977 L 688 977  A 4 4 0 0 1 684 973 L 684 741  Z " fill-rule="nonzero" fill="#ffffff" stroke="none" />
      <path d="M 683.5 741  A 4.5 4.5 0 0 1 688 736.5 L 945 736.5  A 4.5 4.5 0 0 1 949.5 741 L 949.5 973  A 4.5 4.5 0 0 1 945 977.5 L 688 977.5  A 4.5 4.5 0 0 1 683.5 973 L 683.5 741  Z " stroke-width="1" stroke="#000000" fill="none" stroke-opacity="0.0980392156862745" />
    </g>
  </defs>
  <g transform="matrix(1 0 0 1 -675 -730 )">
    <use xlink:href="#widget43" filter="url(#filter42)" />
    <use xlink:href="#widget43" />
  </g>
</svg>