<?xml version="1.0" encoding="utf-8"?>
<svg version="1.1" xmlns:xlink="http://www.w3.org/1999/xlink" width="34px" height="34px" xmlns="http://www.w3.org/2000/svg">
  <g transform="matrix(1 0 0 1 -755 -454 )">
    <path d="M 21.491 33.277  C 20.056 33.675  18.559 33.875  17 33.875  C 15.441 33.875  13.944 33.676  12.509 33.277  C 11.074 32.878  9.729 32.313  8.475 31.581  C 7.221 30.849  6.081 29.97  5.056 28.944  C 4.031 27.918  3.152 26.779  2.419 25.525  C 1.686 24.271  1.121 22.926  0.723000000000001 21.491  C 0.324999999999999 20.056  0.125 18.559  0.125 17  C 0.125 15.441  0.324 13.944  0.723000000000001 12.509  C 1.122 11.074  1.687 9.729  2.419 8.475  C 3.151 7.221  4.03 6.081  5.056 5.056  C 6.082 4.031  7.221 3.152  8.475 2.419  C 9.729 1.686  11.074 1.121  12.509 0.723000000000001  C 13.944 0.324999999999999  15.442 0.125  17 0.125  C 18.558 0.125  20.056 0.324  21.491 0.723000000000001  C 22.926 1.122  24.271 1.687  25.525 2.419  C 26.779 3.151  27.919 4.03  28.944 5.056  C 29.969 6.082  30.848 7.221  31.581 8.475  C 32.314 9.729  32.879 11.074  33.277 12.509  C 33.675 13.944  33.875 15.442  33.875 17  C 33.875 18.558  33.676 20.056  33.277 21.491  C 32.878 22.926  32.313 24.271  31.581 25.525  C 30.849 26.779  29.97 27.919  28.944 28.944  C 27.918 29.969  26.779 30.848  25.525 31.581  C 24.271 32.314  22.926 32.879  21.491 33.277  Z M 20.876 2.902  C 19.628 2.55  18.336 2.375  17 2.375  C 15.652 2.375  14.357 2.551  13.115 2.902  C 11.873 3.253  10.71 3.746  9.626 4.379  C 8.542 5.012  7.555 5.774  6.664 6.664  C 5.773 7.554  5.012 8.542  4.379 9.626  C 3.746 10.71  3.254 11.876  2.902 13.124  C 2.55 14.372  2.375 15.664  2.375 17  C 2.375 18.336  2.551 19.628  2.902 20.876  C 3.253 22.124  3.746 23.29  4.379 24.374  C 5.012 25.458  5.774 26.445  6.664 27.336  C 7.554 28.227  8.542 28.988  9.626 29.621  C 10.71 30.254  11.873 30.746  13.115 31.098  C 14.357 31.45  15.652 31.625  17 31.625  C 18.336 31.625  19.628 31.449  20.876 31.098  C 22.124 30.747  23.29 30.254  24.374 29.621  C 25.458 28.988  26.445 28.226  27.336 27.336  C 28.227 26.446  28.988 25.458  29.621 24.374  C 30.254 23.29  30.746 22.127  31.098 20.885  C 31.45 19.643  31.625 18.348  31.625 17  C 31.625 15.664  31.449 14.372  31.098 13.124  C 30.747 11.876  30.254 10.71  29.621 9.626  C 28.988 8.542  28.226 7.555  27.336 6.664  C 26.446 5.773  25.458 5.012  24.374 4.379  C 23.29 3.746  22.124 3.254  20.876 2.902  Z M 15.875 11.375  L 15.875 9.125  L 18.125 9.125  L 18.125 11.375  L 15.875 11.375  Z M 16 24.875  L 16 13.625  L 18 13.625  L 18 24.875  L 16 24.875  Z " fill-rule="nonzero" fill="#231f20" stroke="none" transform="matrix(1 0 0 1 755 454 )" />
  </g>
</svg>