<?xml version="1.0" encoding="utf-8"?>
<svg version="1.1" xmlns:xlink="http://www.w3.org/1999/xlink" width="12px" height="12px" viewBox="132 502.5  12 12" xmlns="http://www.w3.org/2000/svg">
  <path d="M 138 502.5  C 141.36 502.5  144 505.14  144 508.5  C 144 511.86  141.36 514.5  138 514.5  C 134.64 514.5  132 511.86  132 508.5  C 132 505.14  134.64 502.5  138 502.5  Z " fill-rule="nonzero" fill="#f0f0f0" stroke="none" />
  <path d="M 138 503  C 141.08 503  143.5 505.42  143.5 508.5  C 143.5 511.58  141.08 514  138 514  C 134.92 514  132.5 511.58  132.5 508.5  C 132.5 505.42  134.92 503  138 503  Z " stroke-width="1" stroke="#797979" fill="none" />
  <path d="M 138 511.5  C 136.32 511.5  135 510.18  135 508.5  C 135 506.82  136.32 505.5  138 505.5  C 139.68 505.5  141 506.82  141 508.5  C 141 510.18  139.68 511.5  138 511.5  " fill-rule="nonzero" fill="#797979" stroke="none" />
</svg>