<?xml version="1.0" encoding="utf-8"?>
<svg version="1.1" xmlns:xlink="http://www.w3.org/1999/xlink" width="916px" height="136px" xmlns="http://www.w3.org/2000/svg">
  <defs>
    <filter x="49px" y="1964px" width="916px" height="136px" filterUnits="userSpaceOnUse" id="filter152">
      <feOffset dx="0" dy="2" in="SourceAlpha" result="shadowOffsetInner" />
      <feGaussianBlur stdDeviation="4" in="shadowOffsetInner" result="shadowGaussian" />
      <feComposite in2="shadowGaussian" operator="atop" in="SourceAlpha" result="shadowComposite" />
      <feColorMatrix type="matrix" values="0 0 0 0 0  0 0 0 0 0  0 0 0 0 0  0 0 0 0.0980392156862745 0  " in="shadowComposite" />
    </filter>
    <g id="widget153">
      <path d="M 58 1975  A 4 4 0 0 1 62 1971 L 952 1971  A 4 4 0 0 1 956 1975 L 956 2085  A 4 4 0 0 1 952 2089 L 62 2089  A 4 4 0 0 1 58 2085 L 58 1975  Z " fill-rule="nonzero" fill="#ffffff" stroke="none" />
      <path d="M 57.5 1975  A 4.5 4.5 0 0 1 62 1970.5 L 952 1970.5  A 4.5 4.5 0 0 1 956.5 1975 L 956.5 2085  A 4.5 4.5 0 0 1 952 2089.5 L 62 2089.5  A 4.5 4.5 0 0 1 57.5 2085 L 57.5 1975  Z " stroke-width="1" stroke="#000000" fill="none" stroke-opacity="0.0980392156862745" />
    </g>
  </defs>
  <g transform="matrix(1 0 0 1 -49 -1964 )">
    <use xlink:href="#widget153" filter="url(#filter152)" />
    <use xlink:href="#widget153" />
  </g>
</svg>