<?xml version="1.0" encoding="utf-8"?>
<svg version="1.1" xmlns:xlink="http://www.w3.org/1999/xlink" width="23px" height="18px" xmlns="http://www.w3.org/2000/svg">
  <g transform="matrix(1 0 0 1 -902 -307 )">
    <path d="M 1.15 6.7719298245614  C 0.514984375 6.7719298245614  0 7.27473684210526  0 7.89473684210526  L 0 17.4385964912281  C 0 17.7487719298246  0.2573125 18  0.575 18  L 3.45 18  L 3.45 6.7719298245614  L 1.15 6.7719298245614  Z M 13.225 6.49122807017544  C 13.225 6.33614035087719  13.09634375 6.21052631578947  12.9375 6.21052631578947  L 12.075 6.21052631578947  L 12.075 4.80701754385965  C 12.075 4.6519298245614  11.94634375 4.52631578947368  11.7875 4.52631578947368  L 11.2125 4.52631578947368  C 11.05365625 4.52631578947368  10.925 4.6519298245614  10.925 4.80701754385965  L 10.925 7.05263157894737  C 10.925 7.20771929824561  11.05365625 7.33333333333333  11.2125 7.33333333333333  L 12.9375 7.33333333333333  C 13.09634375 7.33333333333333  13.225 7.20771929824561  13.225 7.05263157894737  L 13.225 6.49122807017544  Z M 18 4.90070175438597  C 18.4 4.52526315789474  18.207734375 4.17438596491228  17.887890625 3.96631578947368  L 12.137890625 0.223508771929824  C 11.7515545052233 -0.0277233358633786  11.2484454947767 -0.0277233358633786  10.862109375 0.223508771929824  L 5.112109375 3.96631578947368  C 4.79224457998491 4.17452481462994  4.60008350275269 4.52500695260843  5 4.90035087719298  L 5 18  L 9.2 18  L 9.2 12.9473684210526  C 9.2 12.6371929824561  9.4573125 12.3859649122807  9.775 12.3859649122807  L 13.225 12.3859649122807  C 13.5426875 12.3859649122807  13.8 12.6371929824561  13.8 12.9473684210526  L 13.8 18  L 18 18  L 18 4.90070175438597  Z M 14.375 6.21052631578947  C 14.375 7.76070175438597  13.08771875 9.01754385964912  11.5 9.01754385964912  C 9.91228125 9.01754385964912  8.625 7.76070175438597  8.625 6.21052631578947  C 8.625 4.66035087719298  9.91228125 3.40350877192982  11.5 3.40350877192982  C 13.08771875 3.40350877192982  14.375 4.66035087719298  14.375 6.21052631578947  Z M 23 7.89473684210526  C 23 7.27473684210526  22.485015625 6.7719298245614  21.85 6.7719298245614  L 19.55 6.7719298245614  L 19.55 18  L 22.425 18  C 22.7426875 18  23 17.7487719298246  23 17.4385964912281  L 23 7.89473684210526  Z " fill-rule="nonzero" fill="#555555" stroke="none" transform="matrix(1 0 0 1 902 307 )" />
  </g>
</svg>