<?xml version="1.0" encoding="utf-8"?>
<svg version="1.1" xmlns:xlink="http://www.w3.org/1999/xlink" width="26px" height="26px" viewBox="366 306  26 26" xmlns="http://www.w3.org/2000/svg">
  <path d="M 366.5 319  A 12.5 12.5 0 0 1 379 306.5 A 12.5 12.5 0 0 1 391.5 319 A 12.5 12.5 0 0 1 379 331.5 A 12.5 12.5 0 0 1 366.5 319 Z " fill-rule="nonzero" fill="#1e5df8" stroke="none" />
  <path d="M 366.5 319  A 12.5 12.5 0 0 1 379 306.5 A 12.5 12.5 0 0 1 391.5 319 A 12.5 12.5 0 0 1 379 331.5 A 12.5 12.5 0 0 1 366.5 319 Z " stroke-width="1" stroke="#e31951" fill="none" />
</svg>