<?xml version="1.0" encoding="utf-8"?>
<svg version="1.1" xmlns:xlink="http://www.w3.org/1999/xlink" width="20px" height="21px" xmlns="http://www.w3.org/2000/svg">
  <g transform="matrix(1 0 0 1 -408 -18 )">
    <path d="M 19.7916666666667 20.73225  C 19.765625 19.4775  19.5078125 18.256875  19.0234375 17.1045  C 18.5321890634501 15.9315780058114  17.8192988988065 14.8661698461054  16.9244791666667 13.967625  C 16.0323772460051 13.0664872156169  14.9755978851432 12.3480116690282  13.8125 11.851875  C 13.8020833333333 11.846625  13.7916666666667 11.844  13.78125 11.83875  C 15.4036458333333 10.6575  16.4583333333333 8.733375  16.4583333333333 6.5625  C 16.4583333333333 2.96625  13.5677083333333 0.0525  10 0.0525  C 6.43229166666667 0.0525  3.54166666666667 2.96625  3.54166666666667 6.5625  C 3.54166666666667 8.733375  4.59635416666667 10.6575  6.21875 11.841375  C 6.20833333333333 11.846625  6.19791666666667 11.84925  6.1875 11.8545  C 5.02083333333333 12.350625  3.97395833333333 13.062  3.07552083333333 13.97025  C 2.18153493612788 14.8694887360268  1.46876157641684 15.9347223317756  0.976562500000001 17.107125  C 0.493026481399217 18.2549141622096  0.232244612373269 19.4854934137819  0.208333333333333 20.73225  C 0.208289925298198 20.7339996615294  0.208268218736486 20.7357498017  0.208268218736486 20.7375000102572  C 0.208268218736486 20.8534798077217  0.301542229188404 20.9475000102572  0.41660155206982 20.9475000102572  L 1.97916666666667 20.9475  C 2.09375 20.9475  2.18489583333333 20.855625  2.1875 20.74275  C 2.23958333333333 18.71625  3.046875 16.818375  4.47395833333333 15.379875  C 5.95052083333333 13.8915  7.91145833333333 13.0725  10 13.0725  C 12.0885416666667 13.0725  14.0494791666667 13.8915  15.5260416666667 15.379875  C 16.953125 16.818375  17.7604166666667 18.71625  17.8125 20.74275  C 17.8151041666667 20.85825  17.90625 20.9475  18.0208333333333 20.9475  L 19.5833333333333 20.9475  C 19.6984577708116 20.9475000102572  19.7917317812635 20.8534798077217  19.7917317812635 20.7375000102572  C 19.7917317812635 20.7357498017001  19.7917100747018 20.7339996615293  19.7916666666667 20.73225  Z M 13.1666666666667 9.7545  C 12.3203125 10.607625  11.1953125 11.0775  10 11.0775  C 8.8046875 11.0775  7.6796875 10.607625  6.83333333333333 9.7545  C 5.98697916666667 8.901375  5.52083333333333 7.767375  5.52083333333333 6.5625  C 5.52083333333333 5.357625  5.98697916666667 4.223625  6.83333333333333 3.3705  C 7.6796875 2.517375  8.8046875 2.0475  10 2.0475  C 11.1953125 2.0475  12.3203125 2.517375  13.1666666666667 3.3705  C 14.0130208333333 4.223625  14.4791666666667 5.357625  14.4791666666667 6.5625  C 14.4791666666667 7.767375  14.0130208333333 8.901375  13.1666666666667 9.7545  Z " fill-rule="nonzero" fill="#333333" stroke="none" transform="matrix(1 0 0 1 408 18 )" />
  </g>
</svg>