<?xml version="1.0" encoding="utf-8"?>
<svg version="1.1" xmlns:xlink="http://www.w3.org/1999/xlink" width="25px" height="16px" xmlns="http://www.w3.org/2000/svg">
  <g transform="matrix(1 0 0 1 -27 -22 )">
    <path d="M 25 0.181818181818182  C 25 0.0818181818181817  24.8875 0  24.75 0  L 0.25 0  C 0.1125 0  0 0.0818181818181817  0 0.181818181818182  L 0 1.63636363636364  C 0 1.73636363636364  0.1125 1.81818181818182  0.25 2  L 24.75 2  C 24.8875 1.81818181818182  25 1.73636363636364  25 1.63636363636364  L 25 0.181818181818182  Z M 25 14.3636363636364  C 25 14.2636363636364  24.8875 14.1818181818182  24.75 14  L 0.25 14  C 0.1125 14.1818181818182  0 14.2636363636364  0 14.3636363636364  L 0 15.8181818181818  C 0 15.9181818181818  0.1125 16  0.25 16  L 24.75 16  C 24.8875 16  25 15.9181818181818  25 15.8181818181818  L 25 14.3636363636364  Z M 25 7.27272727272727  C 25 7.17272727272727  24.8875 7.09090909090909  24.75 7  L 0.25 7  C 0.1125 7.09090909090909  0 7.17272727272727  0 7.27272727272727  L 0 8.72727272727273  C 0 8.82727272727273  0.1125 8.90909090909091  0.25 9  L 24.75 9  C 24.8875 8.90909090909091  25 8.82727272727273  25 8.72727272727273  L 25 7.27272727272727  Z " fill-rule="nonzero" fill="#333333" stroke="none" transform="matrix(1 0 0 1 27 22 )" />
  </g>
</svg>