<?xml version="1.0" encoding="utf-8"?>
<svg version="1.1" xmlns:xlink="http://www.w3.org/1999/xlink" width="206px" height="76px" xmlns="http://www.w3.org/2000/svg">
  <defs>
    <filter x="754px" y="2571px" width="206px" height="76px" filterUnits="userSpaceOnUse" id="filter50">
      <feOffset dx="0" dy="2" in="SourceAlpha" result="shadowOffsetInner" />
      <feGaussianBlur stdDeviation="4" in="shadowOffsetInner" result="shadowGaussian" />
      <feComposite in2="shadowGaussian" operator="atop" in="SourceAlpha" result="shadowComposite" />
      <feColorMatrix type="matrix" values="0 0 0 0 0  0 0 0 0 0  0 0 0 0 0  0 0 0 0.0980392156862745 0  " in="shadowComposite" />
    </filter>
    <g id="widget51">
      <path d="M 763 2582  A 4 4 0 0 1 767 2578 L 947 2578  A 4 4 0 0 1 951 2582 L 951 2632  A 4 4 0 0 1 947 2636 L 767 2636  A 4 4 0 0 1 763 2632 L 763 2582  Z " fill-rule="nonzero" fill="#ffffff" stroke="none" />
      <path d="M 762.5 2582  A 4.5 4.5 0 0 1 767 2577.5 L 947 2577.5  A 4.5 4.5 0 0 1 951.5 2582 L 951.5 2632  A 4.5 4.5 0 0 1 947 2636.5 L 767 2636.5  A 4.5 4.5 0 0 1 762.5 2632 L 762.5 2582  Z " stroke-width="1" stroke="#000000" fill="none" stroke-opacity="0.0980392156862745" />
    </g>
  </defs>
  <g transform="matrix(1 0 0 1 -754 -2571 )">
    <use xlink:href="#widget51" filter="url(#filter50)" />
    <use xlink:href="#widget51" />
  </g>
</svg>