<?xml version="1.0" encoding="utf-8"?>
<svg version="1.1" xmlns:xlink="http://www.w3.org/1999/xlink" width="616px" height="86px" xmlns="http://www.w3.org/2000/svg">
  <defs>
    <filter x="342px" y="518px" width="616px" height="86px" filterUnits="userSpaceOnUse" id="filter57">
      <feOffset dx="0" dy="2" in="SourceAlpha" result="shadowOffsetInner" />
      <feGaussianBlur stdDeviation="4" in="shadowOffsetInner" result="shadowGaussian" />
      <feComposite in2="shadowGaussian" operator="atop" in="SourceAlpha" result="shadowComposite" />
      <feColorMatrix type="matrix" values="0 0 0 0 0  0 0 0 0 0  0 0 0 0 0  0 0 0 0.0980392156862745 0  " in="shadowComposite" />
    </filter>
    <g id="widget58">
      <path d="M 351 529  A 4 4 0 0 1 355 525 L 945 525  A 4 4 0 0 1 949 529 L 949 589  A 4 4 0 0 1 945 593 L 355 593  A 4 4 0 0 1 351 589 L 351 529  Z " fill-rule="nonzero" fill="#ffffff" stroke="none" />
      <path d="M 350.5 529  A 4.5 4.5 0 0 1 355 524.5 L 945 524.5  A 4.5 4.5 0 0 1 949.5 529 L 949.5 589  A 4.5 4.5 0 0 1 945 593.5 L 355 593.5  A 4.5 4.5 0 0 1 350.5 589 L 350.5 529  Z " stroke-width="1" stroke="#000000" fill="none" stroke-opacity="0.0980392156862745" />
    </g>
  </defs>
  <g transform="matrix(1 0 0 1 -342 -518 )">
    <use xlink:href="#widget58" filter="url(#filter57)" />
    <use xlink:href="#widget58" />
  </g>
</svg>