<?xml version="1.0" encoding="utf-8"?>
<svg version="1.1" xmlns:xlink="http://www.w3.org/1999/xlink" width="416px" height="220px" xmlns="http://www.w3.org/2000/svg">
  <defs>
    <filter x="344px" y="2499px" width="416px" height="220px" filterUnits="userSpaceOnUse" id="filter46">
      <feOffset dx="0" dy="2" in="SourceAlpha" result="shadowOffsetInner" />
      <feGaussianBlur stdDeviation="4" in="shadowOffsetInner" result="shadowGaussian" />
      <feComposite in2="shadowGaussian" operator="atop" in="SourceAlpha" result="shadowComposite" />
      <feColorMatrix type="matrix" values="0 0 0 0 0  0 0 0 0 0  0 0 0 0 0  0 0 0 0.0980392156862745 0  " in="shadowComposite" />
    </filter>
    <g id="widget47">
      <path d="M 353 2510  A 4 4 0 0 1 357 2506 L 747 2506  A 4 4 0 0 1 751 2510 L 751 2704  A 4 4 0 0 1 747 2708 L 357 2708  A 4 4 0 0 1 353 2704 L 353 2510  Z " fill-rule="nonzero" fill="#ffffff" stroke="none" />
      <path d="M 352.5 2510  A 4.5 4.5 0 0 1 357 2505.5 L 747 2505.5  A 4.5 4.5 0 0 1 751.5 2510 L 751.5 2704  A 4.5 4.5 0 0 1 747 2708.5 L 357 2708.5  A 4.5 4.5 0 0 1 352.5 2704 L 352.5 2510  Z " stroke-width="1" stroke="#000000" fill="none" stroke-opacity="0.0980392156862745" />
    </g>
  </defs>
  <g transform="matrix(1 0 0 1 -344 -2499 )">
    <use xlink:href="#widget47" filter="url(#filter46)" />
    <use xlink:href="#widget47" />
  </g>
</svg>