<?xml version="1.0" encoding="utf-8"?>
<svg version="1.1" xmlns:xlink="http://www.w3.org/1999/xlink" width="165px" height="165px" xmlns="http://www.w3.org/2000/svg">
  <g transform="matrix(1 0 0 1 -416 -2524 )">
    <path d="M 499.000132411308 2524.50149317339  C 544.057332326295 2524.77059739278  580.5 2561.37947814579  580.5 2606.5  C 580.5 2651.78734948613  543.787349486125 2688.5  498.5 2688.5  C 492.456946574251 2688.5  486.432924342758 2687.83198566214  480.537635355424 2686.50845866887  L 498.987179540617 2606.61249931202  A 0.5 0.5 0 0 0 499 2606.5 L 499.000132100455 2524.50149317153  Z " fill-rule="nonzero" fill="#5899da" stroke="none" />
    <path d="M 499.000132411308 2524.50149317339  C 544.057332326295 2524.77059739278  580.5 2561.37947814579  580.5 2606.5  C 580.5 2651.78734948613  543.787349486125 2688.5  498.5 2688.5  C 492.456946574251 2688.5  486.432924342758 2687.83198566214  480.537635355424 2686.50845866887  L 498.987179540617 2606.61249931202  A 0.5 0.5 0 0 0 499 2606.5 L 499.000132100455 2524.50149317153  Z " stroke-width="1" stroke="#ffffff" fill="none" />
  </g>
</svg>