<?xml version="1.0" encoding="utf-8"?>
<svg version="1.1" xmlns:xlink="http://www.w3.org/1999/xlink" width="339px" height="258px" xmlns="http://www.w3.org/2000/svg">
  <defs>
    <filter x="342px" y="730px" width="339px" height="258px" filterUnits="userSpaceOnUse" id="filter59">
      <feOffset dx="0" dy="2" in="SourceAlpha" result="shadowOffsetInner" />
      <feGaussianBlur stdDeviation="4" in="shadowOffsetInner" result="shadowGaussian" />
      <feComposite in2="shadowGaussian" operator="atop" in="SourceAlpha" result="shadowComposite" />
      <feColorMatrix type="matrix" values="0 0 0 0 0  0 0 0 0 0  0 0 0 0 0  0 0 0 0.0980392156862745 0  " in="shadowComposite" />
    </filter>
    <g id="widget60">
      <path d="M 351 741  A 4 4 0 0 1 355 737 L 668 737  A 4 4 0 0 1 672 741 L 672 973  A 4 4 0 0 1 668 977 L 355 977  A 4 4 0 0 1 351 973 L 351 741  Z " fill-rule="nonzero" fill="#ffffff" stroke="none" />
      <path d="M 350.5 741  A 4.5 4.5 0 0 1 355 736.5 L 668 736.5  A 4.5 4.5 0 0 1 672.5 741 L 672.5 973  A 4.5 4.5 0 0 1 668 977.5 L 355 977.5  A 4.5 4.5 0 0 1 350.5 973 L 350.5 741  Z " stroke-width="1" stroke="#000000" fill="none" stroke-opacity="0.0980392156862745" />
    </g>
  </defs>
  <g transform="matrix(1 0 0 1 -342 -730 )">
    <use xlink:href="#widget60" filter="url(#filter59)" />
    <use xlink:href="#widget60" />
  </g>
</svg>