<?xml version="1.0" encoding="utf-8"?>
<svg version="1.1" xmlns:xlink="http://www.w3.org/1999/xlink" width="916px" height="115px" xmlns="http://www.w3.org/2000/svg">
  <defs>
    <filter x="49px" y="320px" width="916px" height="115px" filterUnits="userSpaceOnUse" id="filter227">
      <feOffset dx="0" dy="2" in="SourceAlpha" result="shadowOffsetInner" />
      <feGaussianBlur stdDeviation="4" in="shadowOffsetInner" result="shadowGaussian" />
      <feComposite in2="shadowGaussian" operator="atop" in="SourceAlpha" result="shadowComposite" />
      <feColorMatrix type="matrix" values="0 0 0 0 0  0 0 0 0 0  0 0 0 0 0  0 0 0 0.0980392156862745 0  " in="shadowComposite" />
    </filter>
    <g id="widget228">
      <path d="M 58 331  A 4 4 0 0 1 62 327 L 952 327  A 4 4 0 0 1 956 331 L 956 420  A 4 4 0 0 1 952 424 L 62 424  A 4 4 0 0 1 58 420 L 58 331  Z " fill-rule="nonzero" fill="#ffffff" stroke="none" />
      <path d="M 57.5 331  A 4.5 4.5 0 0 1 62 326.5 L 952 326.5  A 4.5 4.5 0 0 1 956.5 331 L 956.5 420  A 4.5 4.5 0 0 1 952 424.5 L 62 424.5  A 4.5 4.5 0 0 1 57.5 420 L 57.5 331  Z " stroke-width="1" stroke="#000000" fill="none" stroke-opacity="0.0980392156862745" />
    </g>
  </defs>
  <g transform="matrix(1 0 0 1 -49 -320 )">
    <use xlink:href="#widget228" filter="url(#filter227)" />
    <use xlink:href="#widget228" />
  </g>
</svg>