<?xml version="1.0" encoding="utf-8"?>
<svg version="1.1" xmlns:xlink="http://www.w3.org/1999/xlink" width="176px" height="166px" xmlns="http://www.w3.org/2000/svg">
  <defs>
    <filter x="51px" y="2698px" width="176px" height="166px" filterUnits="userSpaceOnUse" id="filter4">
      <feOffset dx="0" dy="2" in="SourceAlpha" result="shadowOffsetInner" />
      <feGaussianBlur stdDeviation="4" in="shadowOffsetInner" result="shadowGaussian" />
      <feComposite in2="shadowGaussian" operator="atop" in="SourceAlpha" result="shadowComposite" />
      <feColorMatrix type="matrix" values="0 0 0 0 0  0 0 0 0 0  0 0 0 0 0  0 0 0 0.0980392156862745 0  " in="shadowComposite" />
    </filter>
    <g id="widget5">
      <path d="M 60 2709  A 4 4 0 0 1 64 2705 L 214 2705  A 4 4 0 0 1 218 2709 L 218 2849  A 4 4 0 0 1 214 2853 L 64 2853  A 4 4 0 0 1 60 2849 L 60 2709  Z " fill-rule="nonzero" fill="#ffffff" stroke="none" />
      <path d="M 59.5 2709  A 4.5 4.5 0 0 1 64 2704.5 L 214 2704.5  A 4.5 4.5 0 0 1 218.5 2709 L 218.5 2849  A 4.5 4.5 0 0 1 214 2853.5 L 64 2853.5  A 4.5 4.5 0 0 1 59.5 2849 L 59.5 2709  Z " stroke-width="1" stroke="#000000" fill="none" stroke-opacity="0.0980392156862745" />
    </g>
  </defs>
  <g transform="matrix(1 0 0 1 -51 -2698 )">
    <use xlink:href="#widget5" filter="url(#filter4)" />
    <use xlink:href="#widget5" />
  </g>
</svg>