<?xml version="1.0" encoding="utf-8"?>
<svg version="1.1" xmlns:xlink="http://www.w3.org/1999/xlink" width="526px" height="276px" xmlns="http://www.w3.org/2000/svg">
  <defs>
    <filter x="51px" y="2428px" width="526px" height="276px" filterUnits="userSpaceOnUse" id="filter2">
      <feOffset dx="0" dy="2" in="SourceAlpha" result="shadowOffsetInner" />
      <feGaussianBlur stdDeviation="4" in="shadowOffsetInner" result="shadowGaussian" />
      <feComposite in2="shadowGaussian" operator="atop" in="SourceAlpha" result="shadowComposite" />
      <feColorMatrix type="matrix" values="0 0 0 0 0  0 0 0 0 0  0 0 0 0 0  0 0 0 0.0980392156862745 0  " in="shadowComposite" />
    </filter>
    <g id="widget3">
      <path d="M 60 2439  A 4 4 0 0 1 64 2435 L 564 2435  A 4 4 0 0 1 568 2439 L 568 2689  A 4 4 0 0 1 564 2693 L 64 2693  A 4 4 0 0 1 60 2689 L 60 2439  Z " fill-rule="nonzero" fill="#ffffff" stroke="none" />
      <path d="M 59.5 2439  A 4.5 4.5 0 0 1 64 2434.5 L 564 2434.5  A 4.5 4.5 0 0 1 568.5 2439 L 568.5 2689  A 4.5 4.5 0 0 1 564 2693.5 L 64 2693.5  A 4.5 4.5 0 0 1 59.5 2689 L 59.5 2439  Z " stroke-width="1" stroke="#000000" fill="none" stroke-opacity="0.0980392156862745" />
    </g>
  </defs>
  <g transform="matrix(1 0 0 1 -51 -2428 )">
    <use xlink:href="#widget3" filter="url(#filter2)" />
    <use xlink:href="#widget3" />
  </g>
</svg>