<?xml version="1.0" encoding="utf-8"?>
<svg version="1.1" xmlns:xlink="http://www.w3.org/1999/xlink" width="496px" height="376px" xmlns="http://www.w3.org/2000/svg">
  <defs>
    <filter x="49px" y="542px" width="496px" height="376px" filterUnits="userSpaceOnUse" id="filter383">
      <feOffset dx="0" dy="2" in="SourceAlpha" result="shadowOffsetInner" />
      <feGaussianBlur stdDeviation="4" in="shadowOffsetInner" result="shadowGaussian" />
      <feComposite in2="shadowGaussian" operator="atop" in="SourceAlpha" result="shadowComposite" />
      <feColorMatrix type="matrix" values="0 0 0 0 0  0 0 0 0 0  0 0 0 0 0  0 0 0 0.0980392156862745 0  " in="shadowComposite" />
    </filter>
    <g id="widget384">
      <path d="M 58 553  A 4 4 0 0 1 62 549 L 532 549  A 4 4 0 0 1 536 553 L 536 903  A 4 4 0 0 1 532 907 L 62 907  A 4 4 0 0 1 58 903 L 58 553  Z " fill-rule="nonzero" fill="#ffffff" stroke="none" />
      <path d="M 57.5 553  A 4.5 4.5 0 0 1 62 548.5 L 532 548.5  A 4.5 4.5 0 0 1 536.5 553 L 536.5 903  A 4.5 4.5 0 0 1 532 907.5 L 62 907.5  A 4.5 4.5 0 0 1 57.5 903 L 57.5 553  Z " stroke-width="1" stroke="#000000" fill="none" stroke-opacity="0.0980392156862745" />
    </g>
  </defs>
  <g transform="matrix(1 0 0 1 -49 -542 )">
    <use xlink:href="#widget384" filter="url(#filter383)" />
    <use xlink:href="#widget384" />
  </g>
</svg>