<?xml version="1.0" encoding="utf-8"?>
<svg version="1.1" xmlns:xlink="http://www.w3.org/1999/xlink" width="414px" height="376px" xmlns="http://www.w3.org/2000/svg">
  <defs>
    <filter x="551px" y="542px" width="414px" height="376px" filterUnits="userSpaceOnUse" id="filter385">
      <feOffset dx="0" dy="2" in="SourceAlpha" result="shadowOffsetInner" />
      <feGaussianBlur stdDeviation="4" in="shadowOffsetInner" result="shadowGaussian" />
      <feComposite in2="shadowGaussian" operator="atop" in="SourceAlpha" result="shadowComposite" />
      <feColorMatrix type="matrix" values="0 0 0 0 0  0 0 0 0 0  0 0 0 0 0  0 0 0 0.0980392156862745 0  " in="shadowComposite" />
    </filter>
    <g id="widget386">
      <path d="M 560 553  A 4 4 0 0 1 564 549 L 952 549  A 4 4 0 0 1 956 553 L 956 903  A 4 4 0 0 1 952 907 L 564 907  A 4 4 0 0 1 560 903 L 560 553  Z " fill-rule="nonzero" fill="#ffffff" stroke="none" />
      <path d="M 559.5 553  A 4.5 4.5 0 0 1 564 548.5 L 952 548.5  A 4.5 4.5 0 0 1 956.5 553 L 956.5 903  A 4.5 4.5 0 0 1 952 907.5 L 564 907.5  A 4.5 4.5 0 0 1 559.5 903 L 559.5 553  Z " stroke-width="1" stroke="#000000" fill="none" stroke-opacity="0.0980392156862745" />
    </g>
  </defs>
  <g transform="matrix(1 0 0 1 -551 -542 )">
    <use xlink:href="#widget386" filter="url(#filter385)" />
    <use xlink:href="#widget386" />
  </g>
</svg>