<?xml version="1.0" encoding="utf-8"?>
<svg version="1.1" xmlns:xlink="http://www.w3.org/1999/xlink" width="210px" height="210px" xmlns="http://www.w3.org/2000/svg">
  <g transform="matrix(1 0 0 1 -141 -2459 )">
    <path d="M 246.500183512428 2459.50117179908  C 303.983833193172 2459.77055902107  350.5 2506.45306306568  350.5 2564  C 350.5 2621.71375635732  303.713756357318 2668.5  246 2668.5  C 238.253052367905 2668.5  230.530646850256 2667.63854674007  222.97509246645 2665.93185780385  L 246.487179540616 2564.11249931202  A 0.5 0.5 0 0 0 246.5 2564 L 246.500183053552 2459.50117179693  Z " fill-rule="nonzero" fill="#5899da" stroke="none" />
    <path d="M 246.500183512428 2459.50117179908  C 303.983833193172 2459.77055902107  350.5 2506.45306306568  350.5 2564  C 350.5 2621.71375635732  303.713756357318 2668.5  246 2668.5  C 238.253052367905 2668.5  230.530646850256 2667.63854674007  222.97509246645 2665.93185780385  L 246.487179540616 2564.11249931202  A 0.5 0.5 0 0 0 246.5 2564 L 246.500183053552 2459.50117179693  Z " stroke-width="1" stroke="#ffffff" fill="none" />
  </g>
</svg>