<?xml version="1.0" encoding="utf-8"?>
<svg version="1.1" xmlns:xlink="http://www.w3.org/1999/xlink" width="14px" height="14px" viewBox="112 514.5  14 14" xmlns="http://www.w3.org/2000/svg">
  <path d="M 119 514.5  C 122.92 514.5  126 517.58  126 521.5  C 126 525.42  122.92 528.5  119 528.5  C 115.08 528.5  112 525.42  112 521.5  C 112 517.58  115.08 514.5  119 514.5  Z " fill-rule="nonzero" fill="#ffffff" stroke="none" />
  <path d="M 119 515  C 122.64 515  125.5 517.86  125.5 521.5  C 125.5 525.14  122.64 528  119 528  C 115.36 528  112.5 525.14  112.5 521.5  C 112.5 517.86  115.36 515  119 515  Z " stroke-width="1" stroke="#797979" fill="none" />
  <path d="M 119 525  C 117.04 525  115.5 523.46  115.5 521.5  C 115.5 519.54  117.04 518  119 518  C 120.96 518  122.5 519.54  122.5 521.5  C 122.5 523.46  120.96 525  119 525  " fill-rule="nonzero" fill="#797979" stroke="none" />
</svg>