<?xml version="1.0" encoding="utf-8"?>
<svg version="1.1" xmlns:xlink="http://www.w3.org/1999/xlink" width="14px" height="14px" viewBox="742 514.5  14 14" xmlns="http://www.w3.org/2000/svg">
  <path d="M 749 514.5  C 752.92 514.5  756 517.58  756 521.5  C 756 525.42  752.92 528.5  749 528.5  C 745.08 528.5  742 525.42  742 521.5  C 742 517.58  745.08 514.5  749 514.5  Z " fill-rule="nonzero" fill="#f0f0f0" stroke="none" />
  <path d="M 749 515  C 752.64 515  755.5 517.86  755.5 521.5  C 755.5 525.14  752.64 528  749 528  C 745.36 528  742.5 525.14  742.5 521.5  C 742.5 517.86  745.36 515  749 515  Z " stroke-width="1" stroke="#797979" fill="none" />
  <path d="M 749 525  C 747.04 525  745.5 523.46  745.5 521.5  C 745.5 519.54  747.04 518  749 518  C 750.96 518  752.5 519.54  752.5 521.5  C 752.5 523.46  750.96 525  749 525  " fill-rule="nonzero" fill="#797979" stroke="none" />
</svg>