<?xml version="1.0" encoding="utf-8"?>
<svg version="1.1" xmlns:xlink="http://www.w3.org/1999/xlink" width="14px" height="14px" viewBox="622 514.5  14 14" xmlns="http://www.w3.org/2000/svg">
  <path d="M 629 514.5  C 632.92 514.5  636 517.58  636 521.5  C 636 525.42  632.92 528.5  629 528.5  C 625.08 528.5  622 525.42  622 521.5  C 622 517.58  625.08 514.5  629 514.5  Z " fill-rule="nonzero" fill="#ffffff" stroke="none" />
  <path d="M 629 515  C 632.64 515  635.5 517.86  635.5 521.5  C 635.5 525.14  632.64 528  629 528  C 625.36 528  622.5 525.14  622.5 521.5  C 622.5 517.86  625.36 515  629 515  Z " stroke-width="1" stroke="#797979" fill="none" />
  <path d="M 629 525  C 627.04 525  625.5 523.46  625.5 521.5  C 625.5 519.54  627.04 518  629 518  C 630.96 518  632.5 519.54  632.5 521.5  C 632.5 523.46  630.96 525  629 525  " fill-rule="nonzero" fill="#797979" stroke="none" />
</svg>