<?xml version="1.0" encoding="utf-8"?>
<svg version="1.1" xmlns:xlink="http://www.w3.org/1999/xlink" width="14px" height="14px" viewBox="-917 629.5  14 14" xmlns="http://www.w3.org/2000/svg">
  <path d="M -910 629.5  C -906.08 629.5  -903 632.58  -903 636.5  C -903 640.42  -906.08 643.5  -910 643.5  C -913.92 643.5  -917 640.42  -917 636.5  C -917 632.58  -913.92 629.5  -910 629.5  Z " fill-rule="nonzero" fill="#ffffff" stroke="none" />
  <path d="M -910 630  C -906.36 630  -903.5 632.86  -903.5 636.5  C -903.5 640.14  -906.36 643  -910 643  C -913.64 643  -916.5 640.14  -916.5 636.5  C -916.5 632.86  -913.64 630  -910 630  Z " stroke-width="1" stroke="#797979" fill="none" />
  <path d="M -910 640  C -911.96 640  -913.5 638.46  -913.5 636.5  C -913.5 634.54  -911.96 633  -910 633  C -908.04 633  -906.5 634.54  -906.5 636.5  C -906.5 638.46  -908.04 640  -910 640  " fill-rule="nonzero" fill="#797979" stroke="none" />
</svg>