<?xml version="1.0" encoding="utf-8"?>
<svg version="1.1" xmlns:xlink="http://www.w3.org/1999/xlink" width="14px" height="14px" viewBox="-1547 629.5  14 14" xmlns="http://www.w3.org/2000/svg">
  <path d="M -1540 629.5  C -1536.08 629.5  -1533 632.58  -1533 636.5  C -1533 640.42  -1536.08 643.5  -1540 643.5  C -1543.92 643.5  -1547 640.42  -1547 636.5  C -1547 632.58  -1543.92 629.5  -1540 629.5  Z " fill-rule="nonzero" fill="#ffffff" stroke="none" />
  <path d="M -1540 630  C -1536.36 630  -1533.5 632.86  -1533.5 636.5  C -1533.5 640.14  -1536.36 643  -1540 643  C -1543.64 643  -1546.5 640.14  -1546.5 636.5  C -1546.5 632.86  -1543.64 630  -1540 630  Z " stroke-width="1" stroke="#797979" fill="none" />
  <path d="M -1540 640  C -1541.96 640  -1543.5 638.46  -1543.5 636.5  C -1543.5 634.54  -1541.96 633  -1540 633  C -1538.04 633  -1536.5 634.54  -1536.5 636.5  C -1536.5 638.46  -1538.04 640  -1540 640  " fill-rule="nonzero" fill="#797979" stroke="none" />
</svg>