<?xml version="1.0" encoding="utf-8"?>
<svg version="1.1" xmlns:xlink="http://www.w3.org/1999/xlink" width="48px" height="38px" xmlns="http://www.w3.org/2000/svg">
  <defs>
    <filter x="267px" y="3054px" width="48px" height="38px" filterUnits="userSpaceOnUse" id="filter47">
      <feOffset dx="0" dy="2" in="SourceAlpha" result="shadowOffsetInner" />
      <feGaussianBlur stdDeviation="4" in="shadowOffsetInner" result="shadowGaussian" />
      <feComposite in2="shadowGaussian" operator="atop" in="SourceAlpha" result="shadowComposite" />
      <feColorMatrix type="matrix" values="0 0 0 0 0  0 0 0 0 0  0 0 0 0 0  0 0 0 0.298039215686275 0  " in="shadowComposite" />
    </filter>
    <g id="widget48">
      <path d="M 276 3064  A 3 3 0 0 1 279 3061 L 303 3061  A 3 3 0 0 1 306 3064 L 306 3078  A 3 3 0 0 1 303 3081 L 279 3081  A 3 3 0 0 1 276 3078 L 276 3064  Z " fill-rule="nonzero" fill="#ffffff" stroke="none" />
      <path d="M 275.5 3064  A 3.5 3.5 0 0 1 279 3060.5 L 303 3060.5  A 3.5 3.5 0 0 1 306.5 3064 L 306.5 3078  A 3.5 3.5 0 0 1 303 3081.5 L 279 3081.5  A 3.5 3.5 0 0 1 275.5 3078 L 275.5 3064  Z " stroke-width="1" stroke="#000000" fill="none" stroke-opacity="0.149019607843137" />
    </g>
  </defs>
  <g transform="matrix(1 0 0 1 -267 -3054 )">
    <use xlink:href="#widget48" filter="url(#filter47)" />
    <use xlink:href="#widget48" />
  </g>
</svg>