<?xml version="1.0" encoding="utf-8"?>
<svg version="1.1" xmlns:xlink="http://www.w3.org/1999/xlink" width="52px" height="38px" xmlns="http://www.w3.org/2000/svg">
  <defs>
    <filter x="425px" y="3054px" width="52px" height="38px" filterUnits="userSpaceOnUse" id="filter49">
      <feOffset dx="0" dy="2" in="SourceAlpha" result="shadowOffsetInner" />
      <feGaussianBlur stdDeviation="4" in="shadowOffsetInner" result="shadowGaussian" />
      <feComposite in2="shadowGaussian" operator="atop" in="SourceAlpha" result="shadowComposite" />
      <feColorMatrix type="matrix" values="0 0 0 0 0  0 0 0 0 0  0 0 0 0 0  0 0 0 0.298039215686275 0  " in="shadowComposite" />
    </filter>
    <g id="widget50">
      <path d="M 434 3064  A 3 3 0 0 1 437 3061 L 465 3061  A 3 3 0 0 1 468 3064 L 468 3078  A 3 3 0 0 1 465 3081 L 437 3081  A 3 3 0 0 1 434 3078 L 434 3064  Z " fill-rule="nonzero" fill="#ffffff" stroke="none" />
      <path d="M 433.5 3064  A 3.5 3.5 0 0 1 437 3060.5 L 465 3060.5  A 3.5 3.5 0 0 1 468.5 3064 L 468.5 3078  A 3.5 3.5 0 0 1 465 3081.5 L 437 3081.5  A 3.5 3.5 0 0 1 433.5 3078 L 433.5 3064  Z " stroke-width="1" stroke="#000000" fill="none" stroke-opacity="0.149019607843137" />
    </g>
  </defs>
  <g transform="matrix(1 0 0 1 -425 -3054 )">
    <use xlink:href="#widget50" filter="url(#filter49)" />
    <use xlink:href="#widget50" />
  </g>
</svg>