<?xml version="1.0" encoding="utf-8"?>
<svg version="1.1" xmlns:xlink="http://www.w3.org/1999/xlink" width="36px" height="36px" xmlns="http://www.w3.org/2000/svg">
  <g transform="matrix(1 0 0 1 -6 -5 )">
    <path d="M 24 6  C 33.52 6  41 13.48  41 23  C 41 32.52  33.52 40  24 40  C 14.48 40  7 32.52  7 23  C 7 13.48  14.48 6  24 6  Z " fill-rule="nonzero" fill="#1299f6" stroke="none" fill-opacity="0.0470588235294118" />
    <path d="M 24 6  C 33.52 6  41 13.48  41 23  C 41 32.52  33.52 40  24 40  C 14.48 40  7 32.52  7 23  C 7 13.48  14.48 6  24 6  Z " stroke-width="2" stroke="#1299f6" fill="none" />
  </g>
</svg>