<?xml version="1.0" encoding="utf-8"?>
<svg version="1.1" xmlns:xlink="http://www.w3.org/1999/xlink" width="28px" height="28px" xmlns="http://www.w3.org/2000/svg">
  <defs>
    <mask fill="white" id="clip54">
      <path d="M 0 12  C 0 18.6274169976  5.37258300240001 24  12 24  C 18.6274169976 24  24 18.6274169976  24 12  C 24 5.3725830024  18.6274169976 0  12 0  C 5.37258300240001 0  0 5.3725830024  0 12  Z " fill-rule="evenodd" />
    </mask>
    <filter x="277px" y="3093px" width="28px" height="28px" filterUnits="userSpaceOnUse" id="filter55">
      <feOffset dx="0" dy="1" in="SourceAlpha" result="shadowOffsetInner" />
      <feGaussianBlur stdDeviation="1" in="shadowOffsetInner" result="shadowGaussian" />
      <feComposite in2="shadowGaussian" operator="atop" in="SourceAlpha" result="shadowComposite" />
      <feColorMatrix type="matrix" values="0 0 0 0 0  0 0 0 0 0  0 0 0 0 0  0 0 0 0.2 0  " in="shadowComposite" />
    </filter>
    <g id="widget56">
      <path d="M 0 12  C 0 18.6274169976  5.37258300240001 24  12 24  C 18.6274169976 24  24 18.6274169976  24 12  C 24 5.3725830024  18.6274169976 0  12 0  C 5.37258300240001 0  0 5.3725830024  0 12  Z " fill-rule="nonzero" fill="#ebf5fe" stroke="none" fill-opacity="0.247058823529412" transform="matrix(1 0 0 1 279 3094 )" />
      <path d="M 0 12  C 0 18.6274169976  5.37258300240001 24  12 24  C 18.6274169976 24  24 18.6274169976  24 12  C 24 5.3725830024  18.6274169976 0  12 0  C 5.37258300240001 0  0 5.3725830024  0 12  Z " stroke-width="2" stroke="#0854a0" fill="none" transform="matrix(1 0 0 1 279 3094 )" mask="url(#clip54)" />
    </g>
  </defs>
  <g transform="matrix(1 0 0 1 -277 -3093 )">
    <use xlink:href="#widget56" filter="url(#filter55)" />
    <use xlink:href="#widget56" />
  </g>
</svg>