<?xml version="1.0" encoding="utf-8"?>
<svg version="1.1" xmlns:xlink="http://www.w3.org/1999/xlink" width="34px" height="34px" xmlns="http://www.w3.org/2000/svg">
  <defs>
    <mask fill="white" id="clip60">
      <path d="M 0 15  C 0 23.284271247  6.71572875300001 30  15 30  C 23.284271247 30  30 23.284271247  30 15  C 30 6.715728753  23.284271247 0  15 0  C 6.71572875300001 0  0 6.715728753  0 15  Z " fill-rule="evenodd" />
    </mask>
    <filter x="350px" y="3001px" width="34px" height="34px" filterUnits="userSpaceOnUse" id="filter61">
      <feOffset dx="0" dy="1" in="SourceAlpha" result="shadowOffsetInner" />
      <feGaussianBlur stdDeviation="1" in="shadowOffsetInner" result="shadowGaussian" />
      <feComposite in2="shadowGaussian" operator="atop" in="SourceAlpha" result="shadowComposite" />
      <feColorMatrix type="matrix" values="0 0 0 0 0  0 0 0 0 0  0 0 0 0 0  0 0 0 0.2 0  " in="shadowComposite" />
    </filter>
    <g id="widget62">
      <path d="M 0 15  C 0 23.284271247  6.71572875300001 30  15 30  C 23.284271247 30  30 23.284271247  30 15  C 30 6.715728753  23.284271247 0  15 0  C 6.71572875300001 0  0 6.715728753  0 15  Z " fill-rule="nonzero" fill="#ffffff" stroke="none" fill-opacity="0.247058823529412" transform="matrix(1 0 0 1 352 3002 )" />
      <path d="M 0 15  C 0 23.284271247  6.71572875300001 30  15 30  C 23.284271247 30  30 23.284271247  30 15  C 30 6.715728753  23.284271247 0  15 0  C 6.71572875300001 0  0 6.715728753  0 15  Z " stroke-width="2" stroke="#89919a" fill="none" transform="matrix(1 0 0 1 352 3002 )" mask="url(#clip60)" />
    </g>
  </defs>
  <g transform="matrix(1 0 0 1 -350 -3001 )">
    <use xlink:href="#widget62" filter="url(#filter61)" />
    <use xlink:href="#widget62" />
  </g>
</svg>