<?xml version="1.0" encoding="utf-8"?>
<svg version="1.1" xmlns:xlink="http://www.w3.org/1999/xlink" width="16px" height="16px" viewBox="18 300.5  16 16" xmlns="http://www.w3.org/2000/svg">
  <path d="M 26 300.5  C 30.48 300.5  34 304.02  34 308.5  C 34 312.98  30.48 316.5  26 316.5  C 21.52 316.5  18 312.98  18 308.5  C 18 304.02  21.52 300.5  26 300.5  Z " fill-rule="nonzero" fill="#f0f0f0" stroke="none" />
  <path d="M 26 301  C 30.2 301  33.5 304.3  33.5 308.5  C 33.5 312.7  30.2 316  26 316  C 21.8 316  18.5 312.7  18.5 308.5  C 18.5 304.3  21.8 301  26 301  Z " stroke-width="1" stroke="#797979" fill="none" />
  <path d="M 26 312.5  C 23.76 312.5  22 310.74  22 308.5  C 22 306.26  23.76 304.5  26 304.5  C 28.24 304.5  30 306.26  30 308.5  C 30 310.74  28.24 312.5  26 312.5  " fill-rule="nonzero" fill="#797979" stroke="none" />
</svg>